PathFileType	4	(X/Y/Z)	C:\Users\dbl\Desktop\20210112(1)\20210112\bx_y_10_502.trc
DataRate	CameraRate	NumFrames	NumMarkers	Units	OrigDataRate	OrigDataStartFrame	OrigNumFrames
50.00	50.00	       4	43	mm	50.00	375	       499
Frame#	Time	Top.Head			R.Acromium			L.Acromium			Sternum			R.ASIS			L.ASIS			V.Sacral			R.Thigh.Upper			R.Thigh.Front			R.Thigh.Rear			R.Knee.Lat			R.Knee.Med			R.Shank.Upper			R.Shank.Front			R.Shank.Rear			R.Ankle.Lat			R.Midfoot.Lat			R.Toe.Lat			R.Toe.Tip			R.Toe.Med			R.Ankle.Med			R.Midfoot.Sup			R.Heel			L.Thigh.Upper			L.Thigh.Front			L.Thigh.Rear			L.Knee.Lat			L.Knee.Med			L.Shank.Upper			L.Shank.Front			L.Shank.Rear			L.Ankle.Lat			L.Midfoot.Lat			L.Toe.Lat			L.Toe.Tip			L.Toe.Med			L.Ankle.Med			L.Midfoot.Sup			L.Heel			origin1 front left			origin2 front right			origin 3 back right			origin 4 back leftt			
		X1	Y1	Z1	X2	Y2	Z2	X3	Y3	Z3	X4	Y4	Z4	X5	Y5	Z5	X6	Y6	Z6	X7	Y7	Z7	X8	Y8	Z8	X9	Y9	Z9	X10	Y10	Z10	X11	Y11	Z11	X12	Y12	Z12	X13	Y13	Z13	X14	Y14	Z14	X15	Y15	Z15	X16	Y16	Z16	X17	Y17	Z17	X18	Y18	Z18	X19	Y19	Z19	X20	Y20	Z20	X21	Y21	Z21	X22	Y22	Z22	X23	Y23	Z23	X24	Y24	Z24	X25	Y25	Z25	X26	Y26	Z26	X27	Y27	Z27	X28	Y28	Z28	X29	Y29	Z29	X30	Y30	Z30	X31	Y31	Z31	X32	Y32	Z32	X33	Y33	Z33	X34	Y34	Z34	X35	Y35	Z35	X36	Y36	Z36	X37	Y37	Z37	X38	Y38	Z38	X39	Y39	Z39	X40	Y40	Z40	X41	Y41	Z41	X42	Y42	Z42	X43	Y43	Z43	

375	7.480	-213.32474	89.38902	1433.80505	-404.44073	-81.31479	1222.73840	-400.13281	241.79378	1233.12720	-470.74954	75.14227	1208.81470	-784.88812	-24.24069	997.77899	-779.65503	197.66119	1012.40063	-957.15613	75.34130	1088.76575	-848.86163	-82.91382	854.78223	-773.30701	-20.99983	796.11414	-867.32281	-70.49677	699.40753	-838.04663	-44.09902	602.99451	-812.84369	67.11879	562.65540	-837.03802	-39.70445	552.96136	-775.33844	4.09194	521.95056	-859.05774	-49.53153	465.16168	-775.74658	-12.34351	199.26097	-666.19452	-70.47694	159.41621	-623.55200	-81.17893	156.96716	-562.82117	-37.12405	163.17267	-605.55890	18.19780	168.77898	-730.47058	67.41940	220.47127	-678.22748	51.72479	165.03015	-798.87891	49.82609	171.72037	-842.04126	269.60532	864.14124	-776.37341	202.88884	803.77197	-868.21411	276.98422	732.92517	-862.94678	247.21887	618.26434	-810.84839	140.61299	562.08801	-848.15558	242.35886	560.44226	-783.25549	203.06398	532.62054	-867.37140	256.12195	481.13281	-778.83337	228.15010	199.79065	-666.28601	300.65237	158.12967	-628.62683	307.96732	161.22595	-563.25391	258.87988	165.00842	-598.41437	223.49263	173.97273	-723.44244	158.98296	222.62570	-678.83221	176.28433	163.80727	-801.74292	178.31975	180.02957	-528.13647	303.89777	146.32794	-518.03583	-72.38995	142.92256	-876.11633	-78.64262	141.58931	-882.47052	296.11707	144.69821	
376	7.500	-219.02628	88.77650	1448.15845	-407.40637	-82.26791	1232.64136	-402.31976	242.32861	1243.90210	-472.25372	75.38924	1213.16443	-781.81921	-23.46694	998.81525	-776.84747	198.00520	1014.07391	-955.76251	75.91724	1088.42310	-846.10791	-82.40202	855.44818	-770.79614	-20.52693	796.57544	-865.19147	-69.87094	700.00153	-836.26886	-43.78447	603.41089	-810.95837	67.26369	563.35870	-835.61133	-39.54622	553.44379	-773.93976	4.30237	522.05646	-858.00397	-49.27604	465.70923	-775.81506	-12.13250	199.37802	-666.19165	-70.47845	159.42072	-623.55731	-81.16119	156.97943	-562.82446	-37.13383	163.14932	-605.53296	18.19927	168.79610	-730.44769	67.87626	220.98328	-678.18823	51.71399	164.94293	-798.88800	49.87790	171.78230	-838.99365	269.94489	864.88641	-773.72815	203.05365	804.38666	-865.73682	277.04156	733.57745	-861.25928	247.22241	618.93237	-809.75696	141.15747	562.13397	-846.80206	242.57579	560.88483	-781.93976	203.30431	532.82483	-866.29010	256.34177	481.58960	-778.79614	228.11256	199.78667	-666.31982	300.64191	158.18892	-628.62238	308.03391	161.27489	-563.25574	258.89868	164.99779	-598.36322	223.51715	173.95424	-723.17609	158.95258	222.63553	-678.83527	176.25925	163.80557	-801.72095	178.30743	180.07765	-528.14581	303.89386	146.29221	-518.06506	-72.41112	142.87750	-876.10236	-78.65849	141.57564	-882.44696	296.13620	144.72261	
377	7.520	-225.26318	88.34066	1463.06848	-410.63690	-83.11951	1242.97900	-404.78442	243.01265	1255.19775	-473.86026	75.65829	1217.65027	-778.63409	-22.62563	999.80707	-773.94489	198.34998	1015.77563	-954.31653	76.41078	1088.11536	-843.15894	-81.86678	856.15204	-768.12646	-20.06741	797.07770	-862.74634	-69.28619	700.73749	-834.35211	-43.47191	603.91510	-808.96405	67.39578	564.08002	-834.11957	-39.34633	553.94055	-772.44336	4.45674	522.18292	-856.87872	-48.98514	466.26245	-775.86810	-11.95701	199.54628	-666.19067	-70.47654	159.42392	-623.57391	-81.15401	156.97546	-562.82111	-37.15916	163.11702	-605.49750	18.18098	168.83694	-730.34973	68.42025	221.61804	-678.13849	51.75981	164.84981	-798.89288	49.94688	171.83829	-835.79755	270.18326	865.62561	-770.93488	203.25484	805.01190	-863.07367	277.08279	734.31097	-859.43738	247.26109	619.71814	-808.28943	141.48088	562.31024	-845.28503	242.91296	561.37805	-780.48560	203.50731	533.05640	-865.15210	256.49570	482.04767	-778.74213	228.06477	199.80057	-666.35193	300.64209	158.23564	-628.65271	308.10080	161.33794	-563.24933	258.91016	164.96063	-598.33563	223.59132	173.93236	-722.91296	158.91188	222.62398	-678.84259	176.20700	163.85092	-801.68774	178.26068	180.13290	-528.13928	303.89404	146.27814	-518.06787	-72.44262	142.84242	-876.07739	-78.65853	141.53687	-882.43677	296.15152	144.73096	
378	7.540	-232.08423	88.07861	1478.46924	-414.17618	-83.88801	1253.78198	-407.50162	243.79602	1266.89136	-475.57034	75.95000	1222.27124	-775.33203	-21.71367	1000.74872	-770.94690	198.69496	1017.50476	-952.79175	76.84074	1087.86169	-840.02356	-81.30880	856.85010	-765.30634	-19.63095	797.67285	-859.92542	-68.70277	701.58649	-832.34753	-43.17433	604.56836	-806.87488	67.51536	564.79840	-832.52051	-39.09236	554.47870	-770.85815	4.55930	522.36041	-855.63763	-48.66420	466.86902	-775.92114	-11.82820	199.72174	-666.19476	-70.47140	159.42053	-623.61322	-81.15702	156.95338	-562.82129	-37.18848	163.08600	-605.44116	18.14388	168.91521	-730.21625	68.88073	222.17545	-678.10358	51.83573	164.77782	-798.88086	50.01725	171.86533	-832.47729	270.27939	866.37079	-768.01215	203.46469	805.67004	-860.20020	277.09503	735.14081	-857.45581	247.32324	620.51880	-806.52771	141.63217	562.61938	-843.58167	243.33083	561.90576	-778.94733	203.66194	533.28424	-863.92572	256.54434	482.51880	-778.68274	228.02275	199.84445	-666.35944	300.64777	158.25333	-628.69244	308.16272	161.39378	-563.23401	258.94400	164.89441	-598.30011	223.68509	173.94713	-722.68774	158.90736	222.58508	-678.80676	176.14143	163.90268	-801.63953	178.13789	180.21146	-528.12311	303.90982	146.28587	-518.03528	-72.50039	142.86505	-876.05981	-78.65156	141.51010	-882.45032	296.15955	144.72058	
